<svg id="Layer_1" data-name="Layer 1" xmlns="http://www.w3.org/2000/svg" xmlns:xlink="http://www.w3.org/1999/xlink" viewBox="0 0 200 129"><defs><style>.cls-1{fill:url(#radial-gradient);}.cls-2{fill:url(#linear-gradient);}.cls-15,.cls-3{opacity:0.28;}.cls-10,.cls-14,.cls-15,.cls-17,.cls-20,.cls-21,.cls-22,.cls-3,.cls-4,.cls-6,.cls-8,.cls-9{isolation:isolate;}.cls-3{fill:url(#linear-gradient-2);}.cls-14,.cls-4{opacity:0.33;}.cls-4{fill:url(#linear-gradient-3);}.cls-5{fill:url(#linear-gradient-4);}.cls-17,.cls-6{opacity:0.17;}.cls-6{fill:url(#linear-gradient-5);}.cls-7{fill:url(#linear-gradient-6);}.cls-20,.cls-8{opacity:0.08;}.cls-8{fill:url(#linear-gradient-7);}.cls-10,.cls-21,.cls-22,.cls-9{opacity:0.47;}.cls-9{fill:url(#radial-gradient-2);}.cls-10{fill:url(#radial-gradient-3);}.cls-11{fill:#fff;}.cls-12{fill:#a0cb29;}.cls-13{fill:url(#linear-gradient-8);}.cls-14{fill:url(#linear-gradient-9);}.cls-15{fill:url(#linear-gradient-10);}.cls-16{fill:url(#linear-gradient-11);}.cls-17{fill:url(#linear-gradient-12);}.cls-18{fill:url(#radial-gradient-4);}.cls-19{fill:url(#linear-gradient-13);}.cls-20{fill:url(#linear-gradient-14);}.cls-21{fill:url(#radial-gradient-5);}.cls-22{fill:url(#radial-gradient-6);}</style><radialGradient id="radial-gradient" cx="79" cy="-5253.45" r="6.38" gradientTransform="matrix(1, 0, 0, -0.24, 0, -1139.82)" gradientUnits="userSpaceOnUse"><stop offset="0" stop-color="#323232" stop-opacity="0.92"/><stop offset="0.24" stop-color="#272727" stop-opacity="0.64"/><stop offset="0.64" stop-color="#0b0b0b" stop-opacity="0.17"/><stop offset="0.79" stop-opacity="0"/></radialGradient><linearGradient id="linear-gradient" x1="78.7" y1="-359.32" x2="78.7" y2="-329.03" gradientTransform="matrix(1, 0, 0, -1, 0, -264)" gradientUnits="userSpaceOnUse"><stop offset="0" stop-color="#3d6a06"/><stop offset="0.16" stop-color="#588710"/><stop offset="0.33" stop-color="#6d9d18"/><stop offset="0.51" stop-color="#7bae1e"/><stop offset="0.72" stop-color="#84b721"/><stop offset="1" stop-color="#87ba22"/></linearGradient><linearGradient id="linear-gradient-2" x1="77.39" y1="-366.2" x2="77.39" y2="-330.49" gradientTransform="matrix(1, 0, 0, -1, 0, -264)" gradientUnits="userSpaceOnUse"><stop offset="0" stop-color="#bbe882"/><stop offset="0.14" stop-color="#bee988" stop-opacity="0.92"/><stop offset="0.34" stop-color="#c8ec9a" stop-opacity="0.8"/><stop offset="0.58" stop-color="#d8f2b7" stop-opacity="0.67"/><stop offset="0.83" stop-color="#eef9e0" stop-opacity="0.53"/><stop offset="1" stop-color="#fff" stop-opacity="0.43"/></linearGradient><linearGradient id="linear-gradient-3" x1="78.09" y1="-364.42" x2="78.09" y2="-332.57" gradientTransform="matrix(1, 0, 0, -1, 0, -264)" gradientUnits="userSpaceOnUse"><stop offset="0" stop-color="#48790b"/><stop offset="0.82" stop-color="#fff" stop-opacity="0.43"/></linearGradient><linearGradient id="linear-gradient-4" x1="75.69" y1="-368.98" x2="75.69" y2="-358.09" gradientTransform="matrix(1, 0, 0, -1, 0, -264)" gradientUnits="userSpaceOnUse"><stop offset="0" stop-color="#5e7814"/><stop offset="0.51" stop-color="#8aa21f"/><stop offset="1" stop-color="#b1c628"/></linearGradient><linearGradient id="linear-gradient-5" x1="75.32" y1="-367.16" x2="75.49" y2="-358.38" gradientTransform="matrix(1, 0, 0, -1, 0, -264)" gradientUnits="userSpaceOnUse"><stop offset="0" stop-color="#82af10"/><stop offset="0.82" stop-color="#fff" stop-opacity="0"/></linearGradient><linearGradient id="linear-gradient-6" x1="82.5" y1="-369.33" x2="82.5" y2="-359.52" gradientTransform="matrix(1, 0, 0, -1, 0, -264)" gradientUnits="userSpaceOnUse"><stop offset="0" stop-color="#5e7814"/><stop offset="0.14" stop-color="#758e1a"/><stop offset="0.34" stop-color="#8fa620"/><stop offset="0.55" stop-color="#a2b824"/><stop offset="0.77" stop-color="#adc327"/><stop offset="1" stop-color="#b1c628"/></linearGradient><linearGradient id="linear-gradient-7" x1="80.1" y1="-370.07" x2="80.1" y2="-358.96" gradientTransform="matrix(1, 0, 0, -1, 0, -264)" gradientUnits="userSpaceOnUse"><stop offset="0" stop-color="#fff"/><stop offset="1" stop-color="#fff" stop-opacity="0"/></linearGradient><radialGradient id="radial-gradient-2" cx="12088.47" cy="-7108.84" r="6.78" gradientTransform="matrix(0.18, 0, 0, -0.19, -2047.7, -1222.88)" gradientUnits="userSpaceOnUse"><stop offset="0" stop-color="#323232"/><stop offset="0.29" stop-color="#252525" stop-opacity="0.67"/><stop offset="0.83" stop-color="#040404" stop-opacity="0.07"/><stop offset="0.89" stop-opacity="0"/></radialGradient><radialGradient id="radial-gradient-3" cx="12077.68" cy="-7108.84" r="6.78" xlink:href="#radial-gradient-2"/><linearGradient id="linear-gradient-8" x1="113.49" y1="83.09" x2="113.49" y2="19.49" gradientTransform="matrix(1, 0, 0, 1, 0, 0)" xlink:href="#linear-gradient"/><linearGradient id="linear-gradient-9" x1="110.25" y1="87.04" x2="110.25" y2="19.24" gradientTransform="matrix(1, 0, 0, 1, 0, 0)" xlink:href="#linear-gradient-3"/><linearGradient id="linear-gradient-10" x1="110.45" y1="83.08" x2="110.45" y2="19.44" gradientTransform="matrix(1, 0, 0, 1, 0, 0)" xlink:href="#linear-gradient-2"/><linearGradient id="linear-gradient-11" x1="94.1" y1="-364.78" x2="94.1" y2="-337.58" xlink:href="#linear-gradient-4"/><linearGradient id="linear-gradient-12" x1="93.17" y1="-360.23" x2="93.59" y2="-338.32" xlink:href="#linear-gradient-5"/><radialGradient id="radial-gradient-4" cx="102.36" cy="-5237.39" r="15.94" xlink:href="#radial-gradient"/><linearGradient id="linear-gradient-13" x1="111.1" y1="-365.65" x2="111.1" y2="-341.16" xlink:href="#linear-gradient-6"/><linearGradient id="linear-gradient-14" x1="105.09" y1="-367.51" x2="105.09" y2="-339.75" xlink:href="#linear-gradient-7"/><radialGradient id="radial-gradient-5" cx="12228.57" cy="-7041.02" r="16.94" xlink:href="#radial-gradient-2"/><radialGradient id="radial-gradient-6" cx="12201.62" cy="-7041.02" r="16.92" xlink:href="#radial-gradient-2"/></defs><title>Our Partners</title><g id="E"><ellipse class="cls-1" cx="79" cy="105.24" rx="6.67" ry="1.38"/><path class="cls-2" d="M76.65,102.15H81.1c-.27-5.78-2-24.24-4.8-35.71C76.82,74.31,77.38,100.49,76.65,102.15Z"/><path class="cls-3" d="M76.65,102.2h1.81c.23-13.06-2.16-35.71-2.16-35.71C76.82,74.36,77.38,100.54,76.65,102.2Z"/><path class="cls-4" d="M76.81,101.17l1.89.55s-.12-4.65,1.14-6.75c.37-2.41-2.64-24.39-3.44-28.13,0-.13-.06-.27-.1-.4.47,7.18,1,29.58.51,34.73Z"/><path class="cls-5" d="M76.52,105.53l2.82.12c.07-5.46-1.91-14.9-7.29-18.57,2.74,3.41,4.72,7.56,4.47,18.45Z"/><path class="cls-6" d="M72.43,87.58c2.55,3.32,4.35,7.58,4.12,18l1.92.08c.07-2.1.12-13.17-6-18.07Z"/><path class="cls-7" d="M81.87,105.71c.09.4-2.81.68-2.91.59s-2.11-13.48,7.33-12.13C81.17,94.39,80.78,101.4,81.87,105.71Z"/><path class="cls-8" d="M79,106.3a8.22,8.22,0,0,0,1.83-.16c-.12-1.13-.69-7.3.69-10.94-3.81,3-2.6,11-2.52,11.1Z"/><ellipse class="cls-9" cx="79.87" cy="99.36" rx="1.3" ry="1.19"/><ellipse class="cls-10" cx="77.97" cy="99.36" rx="1.3" ry="1.19"/><circle class="cls-11" cx="77.97" cy="99.36" r="0.74"/><circle class="cls-11" cx="79.84" cy="99.36" r="0.74"/><path class="cls-12" d="M72.68,103.79l1.06,1.81h.58m1.3.79h1.27L75,101.32m8,4.75h.83l.62-3.92m.68,2.89h.71l.34-1.44"/><path class="cls-13" d="M99.16,97.44a237.87,237.87,0,0,1,.45-25,160.07,160.07,0,0,1,2.45-19.41c.11-.53.21-1,.21-1a91.08,91.08,0,0,1,2.41-9.29c.61-1.91.92-2.87,1.4-4a41,41,0,0,1,3.76-7,32.75,32.75,0,0,1,3.26-4.35c2.17-2.39,3.91-4.25,6.64-4.74a7.78,7.78,0,0,1,3.62.22c3.06.95,4.78,3.62,4.58,3.85s-3.62-4-7-3.23c-1.89.43-3.18,2.29-4.43,4.1a33.65,33.65,0,0,0-2.31,4.4c-1,2.14-1.55,3.48-1.68,3.82-.33.85-.56,1.54-1,2.84-.38,1.12-.68,2-1,3.07-.89,2.82-1.34,4.22-1.61,5.21s-.62,2.32-1.23,5.5c-.82,4.25-1.44,8.19-1.67,10-.71,5.39-1.41,17.18-.56,32.67"/><path class="cls-14" d="M98.82,100.54a178.15,178.15,0,0,1,.5-24.71,201.28,201.28,0,0,1,3.11-24.6c.06-.32.14-.77.26-1.33A55.34,55.34,0,0,1,106.3,38a42.17,42.17,0,0,1,3-5.63c1.11-1.73,2.29-3.27,3.48-4.82.91-1.18,1.36-1.77,1.59-2,2.92-3,7.43-3.41,7.54-3.09s-3,.78-6.06,3.51a17.42,17.42,0,0,0-4.23,6.18,67.4,67.4,0,0,0-4.69,15.32c-1.41,6.76-2.11,10.14-2.68,14.47-.73,5.53-.91,9.48-1.25,21.91-.19,6.9-.22,10.72-.37,18.48"/><path class="cls-15" d="M99.16,97.44a237.87,237.87,0,0,1,.45-25,160.07,160.07,0,0,1,2.45-19.41c.11-.53.21-1,.21-1a91.08,91.08,0,0,1,2.41-9.29c.61-1.91.92-2.87,1.4-4a41,41,0,0,1,3.76-7,32.75,32.75,0,0,1,3.26-4.35c3.47-3.82,5.71-4.53,6.64-4.74a4.49,4.49,0,0,1,2.13-.08,14.86,14.86,0,0,0-2.94.83,8.13,8.13,0,0,0-2.72,2.21A45.84,45.84,0,0,0,111,33.26a48,48,0,0,0-3.23,7.64c-.28.86-.63,2-1.31,4.38-.36,1.19-.74,2.46-1.15,4s-.61,1.81-2.38,10.67c-.74,3.77-1.68,17.81-1.11,37"/><path class="cls-16" d="M96.17,102.16l7,.3c.17-13.63-4.77-37.21-18.21-46.38,6.84,8.5,11.79,18.89,11.18,46.08Z"/><path class="cls-17" d="M85.94,57.32c6.37,8.31,10.87,18.94,10.29,44.93l4.8.21c.17-5.24.29-32.9-15.09-45.14Z"/><ellipse class="cls-18" cx="102.36" cy="101.44" rx="16.66" ry="3.44"/><path class="cls-19" d="M109.52,102.62c.22,1-7,1.68-7.27,1.46S97,70.41,120.55,73.77C107.78,74.32,106.8,91.83,109.52,102.62Z"/><path class="cls-20" d="M102.25,104.08a20.52,20.52,0,0,0,4.58-.41c-.29-2.82-1.72-18.22,1.71-27.31-9.51,7.53-6.48,27.56-6.29,27.72Z"/><path class="cls-12" d="M86.58,97.82l2.62,4.52h1.47m3.24,2h3.18L92.38,91.65M112.3,103.5h2.08l1.53-9.78m1.71,7.21h1.77l.86-3.6"/><ellipse class="cls-21" cx="104.54" cy="86.74" rx="3.24" ry="2.98"/><ellipse class="cls-22" cx="99.79" cy="86.74" rx="3.24" ry="2.98"/><circle class="cls-11" cx="99.79" cy="86.74" r="1.86"/><circle class="cls-11" cx="104.45" cy="86.74" r="1.86"/></g></svg>