<svg id="svg" version="1.1" xmlns="http://www.w3.org/2000/svg" xmlns:xlink="http://www.w3.org/1999/xlink" width="400" height="472.791519434629" viewBox="0, 0, 400,472.791519434629"><g id="svgg"><path id="path0" d="M317.200 14.777 C 317.200 15.043,315.863 15.200,313.600 15.200 C 311.467 15.200,310.000 15.363,310.000 15.600 C 310.000 15.829,308.763 16.003,307.100 16.006 C 305.505 16.010,303.120 16.273,301.800 16.592 C 300.480 16.911,298.826 17.178,298.124 17.186 C 297.422 17.194,296.736 17.380,296.600 17.600 C 296.464 17.820,295.654 18.000,294.800 18.000 C 293.946 18.000,293.136 18.180,293.000 18.400 C 292.864 18.620,292.133 18.800,291.376 18.800 C 290.619 18.800,290.000 18.967,290.000 19.171 C 290.000 19.375,289.008 19.666,287.795 19.818 C 286.582 19.970,285.491 20.252,285.371 20.447 C 285.251 20.641,284.713 20.800,284.176 20.800 C 283.639 20.800,283.200 20.980,283.200 21.200 C 283.200 21.420,282.570 21.600,281.800 21.600 C 281.030 21.600,280.400 21.757,280.400 21.948 C 280.400 22.140,279.507 22.415,278.416 22.560 C 277.325 22.705,276.325 22.998,276.193 23.212 C 276.061 23.425,275.593 23.600,275.153 23.600 C 274.713 23.600,274.464 23.780,274.600 24.000 C 274.744 24.233,274.337 24.400,273.624 24.400 C 272.951 24.400,272.400 24.580,272.400 24.800 C 272.400 25.020,271.961 25.200,271.424 25.200 C 270.887 25.200,270.334 25.383,270.196 25.607 C 270.058 25.830,269.790 25.917,269.600 25.800 C 269.410 25.683,269.142 25.770,269.004 25.993 C 268.866 26.217,268.313 26.400,267.776 26.400 C 267.239 26.400,266.800 26.560,266.800 26.756 C 266.800 26.952,265.990 27.351,265.000 27.643 C 264.010 27.935,263.200 28.307,263.200 28.469 C 263.200 28.631,262.570 28.882,261.800 29.026 C 261.030 29.171,260.400 29.449,260.400 29.645 C 260.400 29.840,260.130 30.000,259.800 30.000 C 259.470 30.000,259.200 30.180,259.200 30.400 C 259.200 30.620,258.868 30.800,258.461 30.800 C 258.055 30.800,257.200 31.048,256.561 31.350 C 255.923 31.653,254.815 32.147,254.100 32.448 C 253.385 32.749,252.800 33.131,252.800 33.298 C 252.800 33.464,252.440 33.600,252.000 33.600 C 251.560 33.600,251.200 33.772,251.200 33.982 C 251.200 34.192,250.570 34.482,249.800 34.626 C 249.030 34.771,248.400 35.049,248.400 35.245 C 248.400 35.440,248.130 35.600,247.800 35.600 C 247.470 35.600,247.200 35.780,247.200 36.000 C 247.200 36.220,246.840 36.400,246.400 36.400 C 245.960 36.400,245.600 36.560,245.600 36.757 C 245.600 36.953,245.150 37.226,244.600 37.364 C 244.050 37.502,243.600 37.865,243.600 38.170 C 243.600 38.528,243.316 38.651,242.800 38.516 C 242.353 38.399,242.000 38.504,242.000 38.753 C 242.000 38.999,241.730 39.200,241.400 39.200 C 241.070 39.200,240.800 39.380,240.800 39.600 C 240.800 39.820,240.440 40.000,240.000 40.000 C 239.560 40.000,239.200 40.160,239.200 40.357 C 239.200 40.553,238.716 40.835,238.124 40.983 C 237.026 41.259,234.707 42.718,234.467 43.286 C 234.393 43.458,234.010 43.600,233.616 43.600 C 233.221 43.600,232.674 43.870,232.400 44.200 C 232.126 44.530,231.654 44.800,231.351 44.800 C 231.048 44.800,230.800 44.980,230.800 45.200 C 230.800 45.420,230.530 45.600,230.200 45.600 C 229.870 45.600,229.600 45.745,229.600 45.923 C 229.600 46.101,228.880 46.564,228.000 46.952 C 227.120 47.340,226.400 47.825,226.400 48.029 C 226.400 48.233,226.130 48.400,225.800 48.400 C 225.470 48.400,225.200 48.580,225.200 48.800 C 225.200 49.020,224.930 49.200,224.600 49.200 C 224.270 49.200,224.000 49.380,224.000 49.600 C 224.000 49.820,223.865 49.971,223.700 49.936 C 223.161 49.822,221.814 50.529,221.153 51.272 C 220.797 51.673,220.302 52.000,220.053 52.000 C 219.804 52.000,219.600 52.168,219.600 52.373 C 219.600 52.578,219.261 52.854,218.847 52.985 C 218.432 53.117,217.534 53.759,216.850 54.412 C 216.167 55.065,215.358 55.600,215.053 55.600 C 214.748 55.600,214.274 55.870,214.000 56.200 C 213.726 56.530,213.294 56.800,213.039 56.800 C 212.785 56.800,212.317 57.160,212.000 57.600 C 211.683 58.040,211.193 58.400,210.912 58.400 C 210.630 58.400,210.400 58.591,210.400 58.824 C 210.400 59.057,210.253 59.156,210.073 59.045 C 209.893 58.934,209.493 59.193,209.185 59.621 C 208.876 60.050,208.433 60.400,208.200 60.400 C 207.967 60.400,207.524 60.750,207.215 61.179 C 206.907 61.607,206.507 61.866,206.327 61.755 C 206.147 61.644,206.000 61.743,206.000 61.976 C 206.000 62.209,205.802 62.400,205.560 62.400 C 205.319 62.400,204.617 62.940,204.000 63.600 C 203.383 64.260,202.687 64.800,202.453 64.800 C 202.218 64.800,201.397 65.430,200.627 66.200 C 199.857 66.970,199.060 67.600,198.856 67.600 C 198.652 67.600,197.944 68.095,197.282 68.700 C 195.412 70.411,194.400 71.212,194.400 70.980 C 194.400 70.863,193.905 71.227,193.300 71.789 C 192.695 72.351,191.047 73.888,189.637 75.205 C 188.228 76.522,186.921 77.600,186.733 77.600 C 186.544 77.600,185.300 78.680,183.968 80.000 C 182.635 81.320,181.396 82.400,181.214 82.400 C 181.032 82.400,178.455 84.785,175.487 87.700 C 172.519 90.615,168.810 94.161,167.245 95.580 C 163.697 98.797,163.400 100.212,166.296 100.108 C 166.568 100.098,166.698 100.241,166.585 100.425 C 166.471 100.609,167.013 100.879,167.789 101.024 C 168.565 101.170,169.200 101.449,169.200 101.645 C 169.200 101.840,169.560 102.000,170.000 102.000 C 170.440 102.000,170.800 102.180,170.800 102.400 C 170.800 102.620,171.250 102.800,171.800 102.800 C 172.350 102.800,172.800 102.980,172.800 103.200 C 172.800 104.860,176.516 102.038,179.463 98.139 C 180.993 96.117,199.188 78.000,199.690 78.000 C 199.908 78.000,201.045 77.010,202.217 75.800 C 203.389 74.590,204.511 73.600,204.711 73.600 C 204.911 73.600,206.182 72.520,207.535 71.200 C 208.888 69.880,210.094 68.800,210.215 68.800 C 210.461 68.800,211.186 68.223,212.601 66.900 C 213.130 66.405,213.669 66.000,213.799 66.000 C 214.024 66.000,214.584 65.577,215.785 64.500 C 216.092 64.225,216.463 64.000,216.611 64.000 C 216.758 64.000,217.383 63.460,218.000 62.800 C 218.617 62.140,219.313 61.600,219.547 61.600 C 219.782 61.600,220.583 60.991,221.328 60.246 C 222.073 59.501,223.069 58.769,223.541 58.619 C 224.013 58.469,224.400 58.178,224.400 57.973 C 224.400 57.768,224.630 57.600,224.912 57.600 C 225.193 57.600,225.683 57.240,226.000 56.800 C 226.317 56.360,226.815 56.000,227.106 56.000 C 227.398 56.000,228.086 55.550,228.636 55.000 C 229.186 54.450,229.898 54.000,230.218 54.000 C 230.538 54.000,230.800 53.861,230.800 53.691 C 230.800 53.521,231.430 53.043,232.200 52.628 C 232.970 52.213,233.600 51.722,233.600 51.537 C 233.600 51.352,233.804 51.200,234.053 51.200 C 234.302 51.200,234.797 50.869,235.153 50.464 C 235.509 50.059,236.254 49.616,236.808 49.479 C 237.362 49.343,238.172 48.909,238.608 48.515 C 239.044 48.122,240.120 47.440,241.000 47.000 C 241.880 46.560,242.660 46.065,242.733 45.900 C 242.807 45.735,243.122 45.600,243.433 45.600 C 243.745 45.600,244.000 45.449,244.000 45.265 C 244.000 45.081,245.035 44.412,246.300 43.778 C 247.565 43.144,248.660 42.485,248.733 42.313 C 248.807 42.141,249.132 42.000,249.457 42.000 C 249.782 42.000,249.933 41.816,249.794 41.590 C 249.655 41.365,249.690 41.230,249.872 41.290 C 250.361 41.452,254.000 39.890,254.000 39.518 C 254.000 39.343,254.360 39.200,254.800 39.200 C 255.240 39.200,255.600 39.020,255.600 38.800 C 255.600 38.580,255.870 38.400,256.200 38.400 C 256.530 38.400,256.800 38.240,256.800 38.045 C 256.800 37.849,257.430 37.571,258.200 37.426 C 258.970 37.282,259.600 36.992,259.600 36.782 C 259.600 36.572,259.960 36.400,260.400 36.400 C 260.840 36.400,261.200 36.220,261.200 36.000 C 261.200 35.780,261.549 35.600,261.976 35.600 C 262.403 35.600,262.851 35.440,262.972 35.245 C 263.093 35.050,263.823 34.772,264.596 34.627 C 265.368 34.482,266.000 34.192,266.000 33.982 C 266.000 33.772,266.349 33.600,266.776 33.600 C 267.203 33.600,267.664 33.420,267.800 33.200 C 267.936 32.980,268.397 32.800,268.824 32.800 C 269.251 32.800,269.600 32.620,269.600 32.400 C 269.600 32.180,269.915 31.999,270.300 31.998 C 270.685 31.996,271.454 31.758,272.009 31.469 C 272.563 31.179,273.868 30.691,274.909 30.384 C 275.949 30.077,276.800 29.685,276.800 29.513 C 276.800 29.341,277.250 29.200,277.800 29.200 C 278.350 29.200,278.800 29.037,278.800 28.838 C 278.800 28.638,279.700 28.351,280.800 28.200 C 281.899 28.049,282.900 27.762,283.023 27.563 C 283.146 27.363,283.777 27.200,284.424 27.200 C 285.071 27.200,285.600 27.020,285.600 26.800 C 285.600 26.580,286.219 26.400,286.976 26.400 C 287.733 26.400,288.451 26.241,288.571 26.047 C 288.691 25.853,289.959 25.569,291.390 25.416 C 292.821 25.263,294.094 24.971,294.219 24.769 C 294.345 24.566,295.146 24.400,296.000 24.400 C 296.854 24.400,297.664 24.220,297.800 24.000 C 297.936 23.780,299.081 23.600,300.344 23.600 C 301.607 23.600,302.828 23.412,303.058 23.182 C 303.673 22.567,324.508 22.524,324.713 23.138 C 324.798 23.394,325.653 23.600,326.633 23.600 C 327.605 23.600,328.400 23.780,328.400 24.000 C 328.400 24.220,329.109 24.400,329.976 24.400 C 330.843 24.400,331.654 24.563,331.777 24.763 C 331.900 24.962,332.901 25.249,334.000 25.400 C 335.100 25.551,336.000 25.838,336.000 26.038 C 336.000 26.237,336.360 26.400,336.800 26.400 C 337.240 26.400,337.600 26.580,337.600 26.800 C 337.600 27.020,338.050 27.200,338.600 27.200 C 339.150 27.200,339.600 27.360,339.600 27.555 C 339.600 27.751,340.230 28.029,341.000 28.174 C 341.770 28.318,342.400 28.608,342.400 28.818 C 342.400 29.028,342.760 29.200,343.200 29.200 C 343.640 29.200,344.000 29.335,344.001 29.500 C 344.001 29.665,344.856 30.336,345.901 30.990 C 346.945 31.645,348.149 32.500,348.575 32.890 C 349.002 33.281,349.494 33.600,349.669 33.600 C 350.128 33.600,358.800 42.348,358.800 42.811 C 358.800 43.025,359.010 43.200,359.267 43.200 C 359.523 43.200,359.624 43.309,359.491 43.443 C 359.357 43.576,359.597 44.060,360.024 44.518 C 360.451 44.976,360.800 45.587,360.800 45.875 C 360.800 46.164,360.981 46.400,361.201 46.400 C 361.422 46.400,361.914 47.120,362.296 48.000 C 362.677 48.880,363.126 49.600,363.294 49.600 C 363.462 49.600,363.600 49.960,363.600 50.400 C 363.600 50.840,363.738 51.200,363.906 51.200 C 364.323 51.200,365.600 54.217,365.600 55.203 C 365.600 55.641,365.780 56.000,366.000 56.000 C 366.220 56.000,366.400 56.360,366.400 56.800 C 366.400 57.240,366.580 57.600,366.800 57.600 C 367.020 57.600,367.200 58.050,367.200 58.600 C 367.200 59.150,367.343 59.600,367.518 59.600 C 367.804 59.600,368.426 62.397,369.054 66.500 C 369.181 67.325,369.445 68.000,369.642 68.000 C 369.839 68.000,370.000 68.979,370.000 70.176 C 370.000 71.373,370.152 72.447,370.339 72.562 C 370.666 72.765,371.393 82.948,371.312 86.200 C 371.176 91.645,370.642 98.400,370.347 98.400 C 370.156 98.400,370.000 99.469,370.000 100.776 C 370.000 102.083,369.820 103.264,369.600 103.400 C 369.380 103.536,369.200 104.447,369.200 105.424 C 369.200 106.401,369.041 107.200,368.848 107.200 C 368.654 107.200,368.367 108.910,368.210 111.000 C 368.054 113.090,367.762 114.800,367.563 114.800 C 367.363 114.800,367.200 115.430,367.200 116.200 C 367.200 116.970,367.040 117.600,366.845 117.600 C 366.650 117.600,366.388 118.095,366.263 118.700 C 365.218 123.740,364.963 124.773,364.700 125.035 C 364.535 125.199,364.400 125.843,364.400 126.467 C 364.400 127.090,364.220 127.600,364.000 127.600 C 363.780 127.600,363.600 128.500,363.600 129.600 C 363.600 131.467,363.667 131.600,364.600 131.600 C 365.150 131.600,365.600 131.780,365.600 132.000 C 365.600 132.220,365.872 132.400,366.205 132.400 C 366.538 132.400,367.123 132.567,367.505 132.771 C 367.887 132.975,368.560 133.274,369.000 133.436 C 369.440 133.598,369.890 133.766,370.000 133.810 C 370.110 133.853,370.785 134.026,371.500 134.194 C 372.215 134.362,372.800 134.657,372.800 134.850 C 372.800 135.042,373.250 135.200,373.800 135.200 C 374.350 135.200,374.800 135.380,374.800 135.600 C 374.800 135.820,375.139 136.000,375.554 136.000 C 375.969 136.000,376.824 136.269,377.454 136.598 C 378.084 136.926,379.106 137.196,379.724 137.198 C 380.370 137.199,380.742 137.370,380.600 137.600 C 380.464 137.820,380.636 138.000,380.982 138.000 C 381.328 138.000,381.968 138.180,382.405 138.400 C 382.842 138.620,383.534 138.965,383.941 139.167 C 384.349 139.368,385.519 139.659,386.541 139.812 L 388.400 140.091 388.400 138.669 C 388.400 137.887,388.566 137.145,388.769 137.019 C 388.971 136.894,389.262 135.623,389.415 134.196 C 389.568 132.768,389.852 131.600,390.047 131.600 C 390.241 131.600,390.400 130.790,390.400 129.800 C 390.400 128.810,390.580 128.000,390.800 128.000 C 391.020 128.000,391.200 127.291,391.200 126.424 C 391.200 125.557,391.366 124.745,391.568 124.620 C 391.771 124.494,392.064 122.590,392.220 120.387 C 392.377 118.185,392.661 116.286,392.852 116.168 C 393.043 116.050,393.200 114.894,393.200 113.600 C 393.200 112.306,393.380 111.136,393.600 111.000 C 393.821 110.864,394.000 109.070,394.000 107.000 C 394.000 104.930,394.179 103.136,394.400 103.000 C 394.648 102.847,394.800 99.204,394.800 93.400 C 394.800 87.596,394.648 83.953,394.400 83.800 C 394.180 83.664,394.000 82.123,394.000 80.376 C 394.000 78.525,393.833 77.200,393.600 77.200 C 393.380 77.200,393.200 76.311,393.200 75.224 C 393.200 74.137,393.047 73.153,392.860 73.037 C 392.673 72.921,392.402 71.434,392.258 69.732 C 392.114 68.029,391.817 66.457,391.598 66.238 C 391.379 66.019,391.200 65.347,391.200 64.744 C 391.200 64.141,391.020 63.536,390.800 63.400 C 390.580 63.264,390.400 62.713,390.400 62.176 C 390.400 61.639,390.220 61.200,390.000 61.200 C 389.780 61.200,389.600 60.861,389.600 60.446 C 389.600 59.312,388.328 55.600,387.939 55.600 C 387.753 55.600,387.600 55.240,387.600 54.800 C 387.600 54.360,387.420 54.000,387.200 54.000 C 386.980 54.000,386.800 53.646,386.800 53.214 C 386.800 52.337,385.567 49.474,385.100 49.267 C 384.935 49.193,384.800 48.961,384.800 48.750 C 384.800 48.539,384.449 47.990,384.020 47.529 C 383.591 47.069,383.125 46.168,382.984 45.527 C 382.843 44.886,382.384 44.147,381.964 43.885 C 381.544 43.622,381.200 43.091,381.200 42.704 C 381.200 42.317,381.059 42.000,380.886 42.000 C 380.714 42.000,380.229 41.415,379.810 40.700 C 379.390 39.985,378.451 38.818,377.723 38.107 C 376.996 37.396,376.400 36.670,376.400 36.494 C 376.400 36.133,372.125 32.027,369.846 30.200 C 369.023 29.540,368.104 28.775,367.804 28.500 C 367.503 28.225,367.104 28.000,366.917 28.000 C 366.730 28.000,366.317 27.640,366.000 27.200 C 365.683 26.760,365.193 26.400,364.912 26.400 C 364.630 26.400,364.400 26.209,364.400 25.976 C 364.400 25.743,364.220 25.664,364.000 25.800 C 363.780 25.936,363.600 25.857,363.600 25.624 C 363.600 25.391,363.240 25.200,362.800 25.200 C 362.360 25.200,362.000 25.065,361.999 24.900 C 361.998 24.446,358.609 22.400,357.858 22.400 C 357.496 22.400,357.200 22.220,357.200 22.000 C 357.200 21.780,356.840 21.600,356.400 21.600 C 355.960 21.600,355.600 21.420,355.600 21.200 C 355.600 20.980,355.165 20.800,354.633 20.800 C 354.102 20.800,353.603 20.608,353.525 20.374 C 353.447 20.140,352.622 19.846,351.691 19.722 C 350.761 19.597,350.000 19.338,350.000 19.147 C 350.000 18.956,349.550 18.800,349.000 18.800 C 348.450 18.800,348.000 18.620,348.000 18.400 C 348.000 18.180,347.638 18.000,347.195 18.000 C 346.752 18.000,346.077 17.836,345.695 17.635 C 344.546 17.032,340.526 16.275,340.047 16.571 C 339.801 16.723,339.600 16.657,339.600 16.424 C 339.600 16.177,338.682 16.000,337.400 16.000 C 336.190 16.000,335.200 15.832,335.200 15.627 C 335.200 15.262,332.088 15.012,322.100 14.571 C 318.787 14.424,317.200 14.491,317.200 14.777 M44.400 155.999 C 44.400 156.219,43.410 156.400,42.200 156.400 C 40.990 156.400,40.000 156.580,40.000 156.800 C 40.000 157.020,39.370 157.200,38.600 157.200 C 37.830 157.200,37.200 157.355,37.200 157.544 C 37.200 157.734,36.256 158.000,35.102 158.137 C 33.949 158.274,32.944 158.569,32.869 158.793 C 32.794 159.017,32.298 159.200,31.767 159.200 C 31.235 159.200,30.800 159.380,30.800 159.600 C 30.800 159.820,30.440 160.000,30.000 160.000 C 29.560 160.000,29.200 160.172,29.200 160.382 C 29.200 160.592,28.570 160.882,27.800 161.026 C 27.030 161.171,26.400 161.449,26.400 161.645 C 26.400 161.840,26.130 162.000,25.800 162.000 C 25.470 162.000,25.200 162.180,25.200 162.400 C 25.200 162.620,24.859 162.800,24.443 162.800 C 24.026 162.800,23.582 163.070,23.455 163.400 C 23.329 163.730,22.899 164.000,22.501 164.000 C 22.103 164.000,21.517 164.360,21.200 164.800 C 20.883 165.240,20.475 165.600,20.294 165.600 C 20.112 165.600,19.544 166.005,19.032 166.500 C 18.520 166.995,17.591 167.760,16.968 168.200 C 15.633 169.142,13.481 171.295,11.800 173.369 C 11.140 174.184,10.375 175.096,10.100 175.396 C 9.825 175.697,9.600 176.054,9.600 176.190 C 9.600 176.325,9.150 176.886,8.600 177.436 C 8.050 177.986,7.600 178.698,7.600 179.018 C 7.600 179.338,7.420 179.600,7.200 179.600 C 6.980 179.600,6.800 179.920,6.800 180.312 C 6.800 180.703,6.440 181.283,6.000 181.600 C 5.560 181.917,5.199 182.362,5.198 182.588 C 5.197 182.815,4.747 183.886,4.198 184.968 C 3.649 186.050,3.200 187.265,3.200 187.668 C 3.200 188.071,3.020 188.400,2.800 188.400 C 2.580 188.400,2.400 188.850,2.400 189.400 C 2.400 189.950,2.236 190.400,2.035 190.400 C 1.835 190.400,1.720 190.850,1.780 191.400 C 1.841 191.950,1.735 192.400,1.545 192.400 C 1.355 192.400,1.200 193.015,1.200 193.767 C 1.200 194.518,0.975 195.208,0.700 195.300 C 0.011 195.530,-0.041 418.676,0.648 419.115 C 0.895 419.272,1.194 420.030,1.312 420.800 C 1.614 422.758,2.102 424.333,2.829 425.695 C 3.033 426.077,3.200 426.662,3.200 426.995 C 3.200 427.328,3.340 427.600,3.512 427.600 C 3.684 427.600,4.173 428.500,4.600 429.600 C 5.027 430.700,5.516 431.600,5.688 431.600 C 5.860 431.600,6.000 431.960,6.000 432.400 C 6.000 432.840,6.180 433.200,6.400 433.200 C 6.620 433.200,6.800 433.470,6.800 433.800 C 6.800 434.130,6.945 434.400,7.123 434.400 C 7.301 434.400,7.760 435.111,8.143 435.979 C 8.526 436.848,9.191 437.670,9.620 437.806 C 10.049 437.942,10.400 438.372,10.400 438.761 C 10.400 439.530,12.577 441.689,12.963 441.304 C 13.093 441.173,13.200 441.291,13.200 441.566 C 13.200 442.190,18.097 447.200,18.707 447.200 C 18.953 447.200,19.393 447.540,19.684 447.956 C 20.167 448.645,22.093 449.978,23.600 450.667 C 23.930 450.818,24.290 451.046,24.400 451.175 C 24.638 451.452,26.879 452.547,28.700 453.275 C 29.415 453.561,30.000 453.931,30.000 454.098 C 30.000 454.264,30.360 454.400,30.800 454.400 C 31.240 454.400,31.600 454.580,31.600 454.800 C 31.600 455.020,32.014 455.200,32.520 455.200 C 33.026 455.200,33.625 455.385,33.851 455.611 C 34.076 455.836,35.192 456.132,36.331 456.266 C 37.469 456.401,38.400 456.666,38.400 456.856 C 38.400 457.045,39.084 457.200,39.920 457.200 C 40.756 457.200,41.611 457.367,41.820 457.572 C 43.245 458.966,244.000 458.955,244.000 457.561 C 244.000 457.363,244.810 457.200,245.800 457.200 C 246.790 457.200,247.600 457.045,247.600 456.856 C 247.600 456.666,248.531 456.401,249.669 456.266 C 250.808 456.132,251.924 455.836,252.149 455.611 C 252.375 455.385,252.884 455.200,253.280 455.200 C 253.676 455.200,254.000 455.020,254.000 454.800 C 254.000 454.580,254.450 454.400,255.000 454.400 C 255.550 454.400,256.000 454.220,256.000 454.000 C 256.000 453.780,256.360 453.600,256.800 453.600 C 257.240 453.600,257.600 453.434,257.600 453.232 C 257.600 453.029,258.160 452.741,258.844 452.590 C 259.987 452.339,260.826 451.819,262.216 450.500 C 262.506 450.225,262.997 450.000,263.308 450.000 C 263.854 450.000,264.438 449.569,267.372 447.000 C 268.126 446.340,269.550 445.170,270.535 444.400 C 271.521 443.630,272.601 442.550,272.937 442.000 C 273.272 441.450,274.278 440.197,275.172 439.217 C 276.067 438.236,276.901 437.111,277.026 436.717 C 277.152 436.322,277.422 436.000,277.627 436.000 C 277.832 436.000,278.000 435.730,278.000 435.400 C 278.000 435.070,278.180 434.800,278.400 434.800 C 278.620 434.800,278.800 434.610,278.800 434.379 C 278.800 434.147,279.250 433.295,279.800 432.486 C 280.350 431.677,280.800 430.711,280.800 430.340 C 280.800 429.970,280.943 429.607,281.119 429.533 C 281.618 429.325,283.251 425.595,283.491 424.115 C 283.610 423.381,283.864 422.684,284.054 422.567 C 284.244 422.449,284.400 421.834,284.400 421.200 C 284.400 420.566,284.580 419.936,284.800 419.800 C 285.020 419.664,285.200 418.948,285.200 418.210 C 285.200 417.471,285.425 416.792,285.700 416.700 C 286.294 416.502,286.690 348.530,286.101 347.941 C 285.907 347.747,285.377 347.948,284.895 348.398 C 284.421 348.839,283.928 349.200,283.799 349.200 C 283.669 349.200,283.102 349.630,282.537 350.155 C 281.475 351.144,281.338 351.278,279.775 352.855 C 278.501 354.141,277.685 354.800,277.370 354.800 C 277.224 354.800,275.972 355.956,274.587 357.368 C 273.202 358.780,271.964 359.830,271.835 359.701 C 271.706 359.572,271.600 359.677,271.600 359.933 C 271.600 360.190,271.375 360.404,271.100 360.409 C 270.825 360.413,270.062 361.043,269.404 361.809 C 268.746 362.574,268.026 363.200,267.804 363.200 C 267.253 363.201,265.163 365.030,265.420 365.287 C 265.533 365.400,265.074 365.721,264.399 366.000 C 263.725 366.280,262.864 366.890,262.486 367.356 C 262.109 367.822,261.269 368.546,260.621 368.963 C 259.972 369.381,259.019 370.145,258.502 370.661 C 257.986 371.178,257.437 371.600,257.282 371.601 C 257.127 371.601,256.370 372.141,255.600 372.800 C 254.830 373.459,253.975 373.999,253.700 373.999 C 253.425 374.000,253.200 374.172,253.200 374.381 C 253.200 374.591,252.577 375.058,251.815 375.420 C 251.053 375.781,250.321 376.420,250.188 376.839 C 250.055 377.257,249.637 377.600,249.260 377.600 C 248.565 377.600,247.047 378.651,245.349 380.309 C 244.837 380.809,244.279 381.213,244.109 381.206 C 243.939 381.199,243.483 381.465,243.095 381.797 C 242.708 382.129,242.166 382.400,241.892 382.400 C 241.617 382.400,241.163 382.767,240.883 383.216 C 240.603 383.664,240.224 383.938,240.040 383.825 C 239.857 383.712,239.385 383.975,238.991 384.409 C 238.598 384.844,238.034 385.200,237.738 385.200 C 237.442 385.200,237.200 385.380,237.200 385.600 C 237.200 385.820,236.930 386.000,236.600 386.000 C 236.270 386.000,236.000 386.160,236.000 386.357 C 236.000 386.553,235.591 386.816,235.092 386.941 C 234.593 387.066,233.790 387.536,233.309 387.985 C 232.827 388.433,232.246 388.800,232.017 388.800 C 231.788 388.800,231.600 388.953,231.600 389.140 C 231.600 389.327,230.790 389.813,229.800 390.222 C 228.810 390.630,228.000 391.086,228.000 391.234 C 228.000 391.383,226.965 392.021,225.700 392.652 C 224.435 393.284,223.051 394.115,222.625 394.500 C 222.198 394.885,221.613 395.200,221.325 395.200 C 221.036 395.200,220.800 395.380,220.800 395.600 C 220.800 395.820,220.665 395.962,220.500 395.916 C 220.071 395.796,217.200 397.236,217.200 397.571 C 217.200 397.725,216.534 398.109,215.720 398.425 C 214.308 398.973,211.922 400.129,210.200 401.099 C 209.760 401.346,208.320 402.049,207.000 402.660 C 205.680 403.271,204.540 403.912,204.467 404.085 C 204.393 404.258,203.888 404.400,203.343 404.400 C 202.798 404.400,202.454 404.563,202.577 404.763 C 202.700 404.962,202.441 405.031,202.001 404.916 C 201.553 404.799,201.200 404.904,201.200 405.153 C 201.200 405.399,200.840 405.600,200.400 405.600 C 199.960 405.600,199.600 405.780,199.600 406.000 C 199.600 406.220,199.150 406.400,198.600 406.400 C 198.050 406.400,197.600 406.580,197.600 406.800 C 197.600 407.020,197.240 407.200,196.800 407.200 C 196.360 407.200,196.000 407.391,196.000 407.624 C 196.000 407.857,195.846 407.952,195.659 407.836 C 195.230 407.571,192.800 408.465,192.800 408.888 C 192.800 409.059,192.440 409.200,192.000 409.200 C 191.560 409.200,191.200 409.380,191.200 409.600 C 191.200 409.820,190.750 410.000,190.200 410.000 C 189.650 410.000,189.200 410.157,189.200 410.348 C 189.200 410.540,188.307 410.815,187.216 410.960 C 186.125 411.105,185.125 411.398,184.993 411.612 C 184.861 411.825,184.313 412.000,183.776 412.000 C 183.239 412.000,182.800 412.180,182.800 412.400 C 182.800 412.620,182.350 412.800,181.800 412.800 C 181.250 412.800,180.800 412.957,180.800 413.148 C 180.800 413.340,179.907 413.615,178.816 413.760 C 177.725 413.905,176.725 414.198,176.593 414.412 C 176.461 414.625,175.733 414.800,174.976 414.800 C 174.219 414.800,173.600 414.980,173.600 415.200 C 173.600 415.420,172.970 415.600,172.200 415.600 C 171.430 415.600,170.800 415.780,170.800 416.000 C 170.800 416.220,170.181 416.400,169.424 416.400 C 168.667 416.400,167.943 416.569,167.815 416.775 C 167.688 416.982,167.231 417.083,166.800 417.000 C 166.369 416.917,165.912 417.018,165.785 417.225 C 165.657 417.431,164.663 417.600,163.576 417.600 C 162.489 417.600,161.600 417.780,161.600 418.000 C 161.600 418.220,160.610 418.400,159.400 418.400 C 158.190 418.400,157.200 418.580,157.200 418.800 C 157.200 419.020,156.300 419.200,155.200 419.200 C 154.100 419.200,153.200 419.344,153.200 419.520 C 153.200 419.696,152.525 419.760,151.700 419.662 C 150.875 419.565,148.021 419.713,145.358 419.991 C 140.304 420.519,123.588 419.576,123.267 418.744 C 123.193 418.555,122.338 418.400,121.367 418.400 C 120.395 418.400,119.600 418.220,119.600 418.000 C 119.600 417.780,118.970 417.600,118.200 417.600 C 117.430 417.600,116.800 417.430,116.800 417.223 C 116.800 417.016,116.444 416.915,116.008 416.998 C 115.573 417.082,115.112 416.982,114.985 416.775 C 114.857 416.569,114.313 416.400,113.776 416.400 C 113.239 416.400,112.800 416.220,112.800 416.000 C 112.800 415.780,112.471 415.600,112.068 415.600 C 111.665 415.600,110.450 415.151,109.368 414.602 C 108.286 414.053,106.995 413.603,106.500 413.602 C 106.005 413.601,105.600 413.420,105.600 413.200 C 105.600 412.980,105.412 412.800,105.183 412.800 C 104.954 412.800,104.396 412.455,103.944 412.033 C 103.491 411.612,102.673 411.155,102.126 411.017 C 101.579 410.880,100.753 410.415,100.290 409.984 C 99.828 409.553,99.213 409.200,98.925 409.200 C 98.636 409.200,98.400 409.059,98.400 408.886 C 98.400 408.714,97.815 408.231,97.100 407.815 C 96.385 407.398,95.509 406.729,95.153 406.328 C 94.797 405.928,94.379 405.600,94.224 405.600 C 93.950 405.600,91.677 403.476,88.230 400.000 C 87.685 399.450,87.005 398.797,86.719 398.549 C 86.434 398.301,85.840 397.596,85.400 396.983 C 84.960 396.370,84.410 395.673,84.178 395.434 C 83.945 395.195,83.411 394.415,82.991 393.700 C 82.571 392.985,82.086 392.400,81.914 392.400 C 81.741 392.400,81.600 392.145,81.600 391.833 C 81.600 391.522,81.465 391.207,81.300 391.133 C 81.135 391.060,80.642 390.280,80.206 389.400 C 79.769 388.520,79.094 387.509,78.706 387.153 C 78.317 386.797,78.000 386.212,78.000 385.853 C 78.000 385.494,77.820 385.200,77.600 385.200 C 77.380 385.200,77.199 384.885,77.198 384.500 C 77.196 384.115,76.926 383.284,76.598 382.654 C 76.269 382.024,76.000 381.259,76.000 380.954 C 76.000 380.649,75.820 380.400,75.600 380.400 C 75.380 380.400,75.200 380.051,75.200 379.624 C 75.200 379.197,75.030 378.742,74.823 378.614 C 74.616 378.486,74.325 377.576,74.178 376.591 C 74.030 375.606,73.750 374.800,73.555 374.800 C 73.360 374.800,73.200 374.260,73.200 373.600 C 73.200 372.940,73.020 372.400,72.800 372.400 C 72.580 372.400,72.400 371.871,72.400 371.224 C 72.400 370.577,72.241 369.949,72.047 369.829 C 71.853 369.709,71.569 368.441,71.416 367.010 C 71.263 365.579,70.971 364.306,70.769 364.181 C 70.566 364.055,70.400 362.984,70.400 361.800 C 70.400 360.616,70.220 359.536,70.000 359.400 C 69.780 359.264,69.600 357.903,69.600 356.376 C 69.600 354.792,69.428 353.600,69.200 353.600 C 68.653 353.600,68.653 332.138,69.200 331.800 C 69.420 331.664,69.600 330.134,69.600 328.400 C 69.600 326.666,69.780 325.136,70.000 325.000 C 70.220 324.864,70.400 323.694,70.400 322.400 C 70.400 321.106,70.561 319.948,70.757 319.826 C 70.954 319.705,71.243 317.984,71.400 316.003 C 71.557 314.021,71.846 312.400,72.042 312.400 C 72.239 312.400,72.400 311.601,72.400 310.624 C 72.400 309.647,72.580 308.736,72.800 308.600 C 73.020 308.464,73.200 307.643,73.200 306.776 C 73.200 305.909,73.359 305.200,73.553 305.200 C 73.748 305.200,74.032 304.032,74.185 302.604 C 74.338 301.177,74.629 299.906,74.831 299.781 C 75.034 299.655,75.200 299.113,75.200 298.576 C 75.200 298.039,75.380 297.600,75.600 297.600 C 75.820 297.600,76.000 296.970,76.000 296.200 C 76.000 295.430,76.157 294.800,76.348 294.800 C 76.540 294.800,76.818 293.725,76.967 292.412 C 77.115 291.099,77.409 289.918,77.618 289.789 C 77.828 289.659,78.000 289.113,78.000 288.576 C 78.000 288.039,78.180 287.600,78.400 287.600 C 78.620 287.600,78.800 287.150,78.800 286.600 C 78.800 286.050,78.980 285.600,79.200 285.600 C 79.420 285.600,79.600 285.180,79.600 284.667 C 79.600 284.153,79.735 283.598,79.900 283.433 C 80.065 283.268,80.218 283.013,80.239 282.867 C 80.557 280.700,80.971 279.200,81.251 279.200 C 81.443 279.200,81.600 278.765,81.600 278.233 C 81.600 277.702,81.735 277.207,81.900 277.133 C 82.286 276.962,83.605 273.217,83.602 272.300 C 83.601 271.915,83.780 271.600,84.000 271.600 C 84.220 271.600,84.400 271.240,84.400 270.800 C 84.400 270.360,84.580 270.000,84.800 270.000 C 85.020 270.000,85.200 269.651,85.200 269.224 C 85.200 268.797,85.360 268.349,85.555 268.228 C 85.750 268.107,86.028 267.377,86.173 266.604 C 86.318 265.832,86.608 265.200,86.818 265.200 C 87.028 265.200,87.200 264.750,87.200 264.200 C 87.200 263.650,87.380 263.200,87.600 263.200 C 87.820 263.200,88.000 262.840,88.000 262.400 C 88.000 261.960,88.169 261.600,88.375 261.600 C 88.582 261.600,88.872 260.790,89.021 259.800 C 89.169 258.810,89.450 258.000,89.645 258.000 C 89.840 258.000,90.000 257.730,90.000 257.400 C 90.000 257.070,90.180 256.800,90.400 256.800 C 90.620 256.800,90.800 256.440,90.800 256.000 C 90.800 255.560,90.980 255.200,91.200 255.200 C 91.420 255.200,91.600 255.025,91.600 254.811 C 91.600 254.218,93.724 249.818,94.084 249.667 C 94.258 249.593,94.400 249.188,94.400 248.767 C 94.400 248.345,94.572 248.000,94.782 248.000 C 94.992 248.000,95.282 247.370,95.426 246.600 C 95.571 245.830,95.849 245.200,96.045 245.200 C 96.240 245.200,96.400 244.930,96.400 244.600 C 96.400 244.270,96.580 244.000,96.800 244.000 C 97.020 244.000,97.200 243.640,97.200 243.200 C 97.200 242.760,97.372 242.400,97.582 242.400 C 97.792 242.400,98.082 241.770,98.226 241.000 C 98.371 240.230,98.649 239.600,98.845 239.600 C 99.040 239.600,99.200 239.330,99.200 239.000 C 99.200 238.670,99.380 238.400,99.600 238.400 C 99.820 238.400,100.000 238.040,100.000 237.600 C 100.000 237.160,100.160 236.800,100.357 236.800 C 100.553 236.800,100.826 236.350,100.964 235.800 C 101.102 235.250,101.392 234.800,101.608 234.800 C 101.823 234.800,102.000 234.440,102.000 234.000 C 102.000 233.560,102.180 233.200,102.400 233.200 C 102.620 233.200,102.800 232.930,102.800 232.600 C 102.800 232.270,102.980 232.000,103.200 232.000 C 103.420 232.000,103.600 231.640,103.600 231.200 C 103.600 230.760,103.777 230.400,103.992 230.400 C 104.208 230.400,104.498 229.950,104.636 229.400 C 104.774 228.850,105.003 228.400,105.146 228.400 C 105.288 228.400,105.663 227.815,105.978 227.100 C 106.293 226.385,106.787 225.562,107.075 225.271 C 107.364 224.981,107.600 224.486,107.600 224.171 C 107.600 223.857,107.780 223.600,108.000 223.600 C 108.220 223.600,108.400 223.322,108.400 222.983 C 108.400 222.644,108.751 221.990,109.180 221.529 C 109.609 221.069,110.244 220.131,110.591 219.446 C 111.437 217.775,112.061 216.802,112.895 215.851 C 113.278 215.416,113.695 214.731,113.822 214.329 C 113.950 213.928,114.222 213.600,114.427 213.600 C 114.632 213.600,114.800 213.240,114.800 212.800 C 114.800 212.360,114.942 212.000,115.116 212.000 C 115.290 212.000,115.958 211.100,116.600 210.000 C 117.242 208.900,117.910 208.000,118.084 208.000 C 118.258 208.000,118.400 207.659,118.400 207.243 C 118.400 206.826,118.670 206.382,119.000 206.255 C 119.330 206.129,119.600 205.741,119.600 205.394 C 119.600 205.047,120.005 204.344,120.500 203.832 C 122.083 202.193,122.741 201.274,122.500 201.034 C 122.372 200.905,122.477 200.800,122.733 200.800 C 122.990 200.800,123.200 200.618,123.200 200.396 C 123.200 200.174,123.740 199.428,124.400 198.737 C 125.060 198.046,125.600 197.341,125.600 197.169 C 125.600 196.998,125.825 196.619,126.100 196.329 C 127.066 195.307,128.800 192.850,128.800 192.502 C 128.800 192.308,129.340 191.632,130.000 191.000 C 130.660 190.368,131.200 189.696,131.200 189.508 C 131.200 189.319,131.650 188.680,132.200 188.087 C 132.750 187.493,133.200 186.859,133.200 186.677 C 133.200 186.495,133.830 185.752,134.600 185.026 C 135.370 184.300,136.000 183.523,136.000 183.301 C 136.000 183.079,136.675 182.192,137.500 181.332 C 138.325 180.472,139.360 179.257,139.800 178.633 C 140.240 178.010,141.005 177.080,141.500 176.568 C 141.995 176.056,142.400 175.514,142.400 175.365 C 142.400 175.216,142.788 174.758,143.261 174.347 C 143.735 173.936,143.965 173.600,143.772 173.600 C 143.580 173.600,143.822 173.320,144.311 172.977 C 144.800 172.635,145.200 172.188,145.200 171.985 C 145.200 171.781,146.235 170.543,147.500 169.232 C 150.085 166.555,150.800 165.729,150.800 165.423 C 150.800 165.308,152.105 163.898,153.700 162.290 C 156.841 159.124,158.600 156.955,158.600 156.248 C 158.600 155.920,143.286 155.773,101.500 155.699 C 63.503 155.631,44.400 155.732,44.400 155.999 M169.768 156.126 C 169.530 156.398,168.990 157.156,168.568 157.810 C 168.146 158.465,167.215 159.591,166.500 160.313 C 165.785 161.036,165.200 161.825,165.200 162.068 C 165.200 162.311,164.589 163.032,163.842 163.670 C 163.096 164.307,162.264 165.363,161.994 166.015 C 161.724 166.667,161.352 167.200,161.167 167.200 C 160.603 167.200,159.169 168.943,159.349 169.411 C 159.441 169.652,158.996 170.198,158.360 170.625 C 157.723 171.051,157.202 171.616,157.201 171.879 C 157.201 172.143,156.750 172.844,156.200 173.438 C 155.650 174.031,155.200 174.721,155.200 174.970 C 155.200 175.219,154.840 175.683,154.400 176.000 C 153.960 176.317,153.600 176.799,153.600 177.070 C 153.600 177.342,153.150 178.014,152.600 178.564 C 152.050 179.114,151.600 179.670,151.600 179.799 C 151.600 179.929,151.150 180.520,150.600 181.113 C 150.050 181.707,149.600 182.379,149.600 182.608 C 149.600 182.836,149.240 183.283,148.800 183.600 C 148.360 183.917,148.000 184.478,148.000 184.846 C 148.000 185.213,147.730 185.618,147.400 185.745 C 147.070 185.871,146.800 186.248,146.800 186.583 C 146.800 187.141,146.176 188.071,144.900 189.416 C 144.625 189.706,144.400 190.231,144.400 190.584 C 144.400 190.937,144.130 191.329,143.800 191.455 C 143.470 191.582,143.200 191.987,143.200 192.354 C 143.200 192.722,142.840 193.283,142.400 193.600 C 141.960 193.917,141.600 194.385,141.600 194.639 C 141.600 194.894,141.330 195.326,141.000 195.600 C 140.670 195.874,140.400 196.447,140.400 196.873 C 140.400 197.299,140.220 197.536,140.000 197.400 C 139.780 197.264,139.600 197.441,139.600 197.793 C 139.600 198.145,139.228 198.831,138.773 199.317 C 138.317 199.803,137.845 200.695,137.723 201.300 C 137.600 201.905,137.343 202.400,137.150 202.400 C 136.958 202.400,136.800 202.588,136.800 202.817 C 136.800 203.046,136.449 203.610,136.020 204.071 C 135.591 204.531,135.127 205.424,134.988 206.054 C 134.850 206.684,134.571 207.200,134.368 207.200 C 134.166 207.200,134.000 207.520,134.000 207.912 C 134.000 208.303,133.641 208.882,133.202 209.199 C 132.763 209.515,132.293 210.365,132.157 211.087 C 132.022 211.809,131.751 212.400,131.555 212.400 C 131.360 212.400,131.200 212.670,131.200 213.000 C 131.200 213.330,131.020 213.600,130.800 213.600 C 130.580 213.600,130.400 213.960,130.400 214.400 C 130.400 214.840,130.241 215.200,130.047 215.200 C 129.852 215.200,129.562 215.605,129.400 216.100 C 129.239 216.595,129.059 217.090,129.000 217.200 C 128.941 217.310,128.761 217.805,128.600 218.300 C 128.438 218.795,128.148 219.200,127.953 219.200 C 127.759 219.200,127.600 219.560,127.600 220.000 C 127.600 220.440,127.462 220.800,127.294 220.800 C 126.973 220.800,125.600 223.720,125.600 224.403 C 125.600 224.621,125.420 224.800,125.200 224.800 C 124.980 224.800,124.800 225.149,124.800 225.576 C 124.800 226.003,124.620 226.464,124.400 226.600 C 124.180 226.736,124.000 227.197,124.000 227.624 C 124.000 228.051,123.799 228.400,123.553 228.400 C 123.294 228.400,123.186 228.814,123.296 229.388 C 123.399 229.931,123.330 230.281,123.142 230.164 C 122.954 230.048,122.800 230.208,122.800 230.520 C 122.800 230.994,121.580 233.723,119.941 236.916 C 119.738 237.310,119.680 237.805,119.810 238.016 C 119.940 238.227,119.857 238.400,119.624 238.400 C 119.391 238.400,119.200 238.850,119.200 239.400 C 119.200 239.950,119.020 240.400,118.800 240.400 C 118.580 240.400,118.400 240.835,118.400 241.367 C 118.400 241.898,118.265 242.393,118.100 242.467 C 117.690 242.649,116.400 246.508,116.400 247.554 C 116.400 248.019,116.220 248.400,116.000 248.400 C 115.780 248.400,115.600 248.850,115.600 249.400 C 115.600 249.950,115.420 250.400,115.200 250.400 C 114.980 250.400,114.800 250.850,114.800 251.400 C 114.800 251.950,114.634 252.400,114.432 252.400 C 114.229 252.400,113.938 253.570,113.785 255.000 C 113.632 256.430,113.348 257.600,113.153 257.600 C 112.959 257.600,112.800 258.230,112.800 259.000 C 112.800 259.770,112.620 260.400,112.400 260.400 C 112.180 260.400,112.000 261.015,112.000 261.767 C 112.000 262.518,111.828 263.193,111.617 263.267 C 111.243 263.397,110.559 267.217,110.132 271.558 C 109.988 273.022,109.805 273.537,109.566 273.158 C 109.331 272.787,109.210 273.210,109.206 274.420 C 109.203 275.421,109.035 276.411,108.832 276.620 C 108.630 276.829,108.386 278.170,108.291 279.600 C 108.195 281.030,107.972 282.633,107.795 283.163 C 107.574 283.825,107.610 284.041,107.911 283.855 C 108.214 283.668,108.251 283.925,108.031 284.692 C 107.857 285.302,107.744 286.655,107.779 287.700 C 107.815 288.745,107.691 289.600,107.505 289.600 C 106.951 289.600,107.532 308.866,108.103 309.437 C 108.266 309.600,108.400 310.773,108.400 312.043 C 108.400 313.313,108.580 314.464,108.800 314.600 C 109.020 314.736,109.200 315.557,109.200 316.424 C 109.200 317.291,109.380 318.000,109.600 318.000 C 109.820 318.000,110.000 318.630,110.000 319.400 C 110.000 320.170,110.159 320.800,110.354 320.800 C 110.549 320.800,110.832 321.790,110.983 323.000 C 111.134 324.210,111.425 325.200,111.629 325.200 C 111.833 325.200,112.000 325.549,112.000 325.976 C 112.000 326.403,112.180 326.864,112.400 327.000 C 112.620 327.136,112.800 327.597,112.800 328.024 C 112.800 328.451,112.972 328.800,113.182 328.800 C 113.392 328.800,113.682 329.430,113.826 330.200 C 113.971 330.970,114.249 331.600,114.445 331.600 C 114.640 331.600,114.800 331.870,114.800 332.200 C 114.800 332.530,114.980 332.800,115.200 332.800 C 115.420 332.800,115.600 333.160,115.600 333.600 C 115.600 334.040,115.780 334.400,116.000 334.400 C 116.220 334.400,116.400 334.648,116.400 334.951 C 116.400 335.254,116.670 335.726,117.000 336.000 C 117.330 336.274,117.600 336.824,117.600 337.222 C 117.600 337.620,117.960 338.060,118.400 338.200 C 118.840 338.340,119.200 338.736,119.200 339.080 C 119.200 339.424,119.830 340.300,120.600 341.026 C 121.370 341.752,122.000 342.456,122.000 342.590 C 122.000 343.221,126.355 347.600,126.983 347.600 C 127.225 347.600,127.683 347.960,128.000 348.400 C 128.317 348.840,128.730 349.200,128.917 349.200 C 129.104 349.200,129.508 349.425,129.815 349.700 C 131.092 350.845,131.584 351.200,131.895 351.200 C 132.076 351.200,132.483 351.560,132.800 352.000 C 133.117 352.440,133.697 352.800,134.088 352.800 C 134.480 352.800,134.800 352.972,134.800 353.182 C 134.800 353.392,135.430 353.682,136.200 353.826 C 136.970 353.971,137.600 354.249,137.600 354.445 C 137.600 354.640,137.870 354.800,138.200 354.800 C 138.530 354.800,138.800 354.980,138.800 355.200 C 138.800 355.420,139.160 355.600,139.600 355.600 C 140.040 355.600,140.400 355.763,140.400 355.962 C 140.400 356.162,141.300 356.449,142.400 356.600 C 143.500 356.751,144.400 357.038,144.400 357.238 C 144.400 357.437,144.940 357.600,145.600 357.600 C 146.260 357.600,146.800 357.780,146.800 358.000 C 146.800 358.220,147.239 358.400,147.776 358.400 C 148.313 358.400,148.852 358.560,148.973 358.757 C 149.094 358.953,150.995 359.242,153.197 359.400 C 155.399 359.557,157.200 359.847,157.200 360.043 C 157.200 360.241,160.944 360.400,165.600 360.400 C 170.220 360.400,174.000 360.248,174.000 360.061 C 174.000 359.875,176.196 359.605,178.881 359.460 C 181.566 359.316,183.942 359.018,184.161 358.799 C 184.380 358.580,185.424 358.400,186.480 358.400 C 187.536 358.400,188.400 358.220,188.400 358.000 C 188.400 357.780,189.015 357.600,189.767 357.600 C 190.518 357.600,191.194 357.418,191.268 357.197 C 191.342 356.975,192.392 356.688,193.601 356.560 C 194.811 356.431,195.860 356.163,195.933 355.963 C 196.007 355.763,196.682 355.600,197.433 355.600 C 198.185 355.600,198.800 355.420,198.800 355.200 C 198.800 354.980,199.162 354.800,199.605 354.800 C 200.048 354.800,200.723 354.627,201.105 354.415 C 201.487 354.204,202.925 353.714,204.300 353.327 C 205.675 352.939,206.800 352.483,206.800 352.311 C 206.800 352.140,207.250 352.000,207.800 352.000 C 208.350 352.000,208.800 351.820,208.800 351.600 C 208.800 351.380,209.250 351.200,209.800 351.200 C 210.350 351.200,210.800 351.040,210.800 350.845 C 210.800 350.649,211.430 350.371,212.200 350.226 C 212.970 350.082,213.600 349.792,213.600 349.582 C 213.600 349.372,213.962 349.200,214.405 349.200 C 215.172 349.200,216.772 348.484,217.200 347.950 C 217.310 347.813,217.985 347.574,218.700 347.418 C 219.415 347.263,220.000 346.971,220.000 346.768 C 220.000 346.566,220.360 346.400,220.800 346.400 C 221.240 346.400,221.600 346.220,221.600 346.000 C 221.600 345.780,221.870 345.600,222.200 345.600 C 222.530 345.600,222.800 345.440,222.800 345.245 C 222.800 345.049,223.430 344.771,224.200 344.626 C 224.970 344.482,225.600 344.192,225.600 343.982 C 225.600 343.772,225.960 343.600,226.400 343.600 C 226.840 343.600,227.200 343.420,227.200 343.200 C 227.200 342.980,227.560 342.800,228.000 342.800 C 228.440 342.800,228.800 342.620,228.800 342.400 C 228.800 342.180,228.979 342.000,229.197 342.000 C 229.880 342.000,232.800 340.627,232.800 340.306 C 232.800 340.138,233.004 340.000,233.253 340.000 C 233.502 340.000,233.997 339.664,234.353 339.254 C 234.709 338.843,235.551 338.387,236.223 338.239 C 236.895 338.091,237.699 337.617,238.011 337.185 C 238.322 336.753,238.897 336.400,239.288 336.400 C 239.680 336.400,240.002 336.265,240.004 336.100 C 240.006 335.935,240.816 335.445,241.804 335.010 C 242.792 334.576,243.600 334.119,243.600 333.994 C 243.600 333.870,244.500 333.242,245.600 332.600 C 246.700 331.958,247.600 331.290,247.600 331.116 C 247.600 330.942,247.784 330.800,248.009 330.800 C 248.494 330.800,251.742 328.731,251.933 328.300 C 252.007 328.135,252.240 328.000,252.452 328.000 C 252.663 328.000,253.286 327.550,253.836 327.000 C 254.386 326.450,255.010 326.000,255.222 326.000 C 255.434 326.000,256.172 325.460,256.863 324.800 C 257.554 324.140,258.244 323.600,258.397 323.600 C 258.550 323.600,259.199 323.150,259.838 322.600 C 260.477 322.051,261.225 321.601,261.500 321.600 C 261.775 321.600,262.000 321.417,262.000 321.194 C 262.000 320.970,262.628 320.488,263.396 320.121 C 264.164 319.755,264.893 319.137,265.016 318.748 C 265.140 318.359,265.568 317.937,265.968 317.810 C 266.367 317.683,267.547 316.774,268.589 315.790 C 269.631 314.805,270.645 314.000,270.842 314.000 C 271.038 314.000,271.941 313.280,272.848 312.400 C 273.755 311.520,274.644 310.800,274.823 310.800 C 275.003 310.800,276.412 309.585,277.955 308.100 C 279.498 306.615,281.599 304.680,282.624 303.800 C 284.342 302.325,285.461 301.252,286.671 299.919 C 286.930 299.634,288.445 298.230,290.038 296.800 C 294.149 293.107,302.851 284.414,303.800 283.051 C 304.240 282.419,304.834 281.699,305.119 281.451 C 306.309 280.418,307.502 279.185,309.200 277.233 C 310.190 276.095,312.305 273.797,313.900 272.126 C 315.495 270.455,316.800 268.883,316.800 268.632 C 316.800 268.382,317.150 267.924,317.579 267.615 C 318.007 267.307,318.266 266.907,318.155 266.727 C 318.044 266.547,318.193 266.400,318.487 266.400 C 319.156 266.400,320.400 264.983,320.400 264.222 C 320.400 263.910,320.715 263.553,321.100 263.429 C 321.485 263.306,322.160 262.664,322.600 262.003 C 323.040 261.343,323.535 260.802,323.700 260.801 C 323.865 260.801,324.000 260.612,324.000 260.382 C 324.000 260.152,324.405 259.530,324.900 259.001 C 326.244 257.564,326.800 256.861,326.800 256.599 C 326.800 256.469,327.250 255.914,327.800 255.364 C 328.350 254.814,328.800 254.230,328.800 254.066 C 328.800 253.902,329.516 252.976,330.392 252.009 C 331.267 251.042,331.904 250.170,331.806 250.072 C 331.708 249.975,332.162 249.396,332.814 248.787 C 333.466 248.178,334.000 247.558,334.000 247.411 C 334.000 247.263,334.225 246.892,334.500 246.585 C 335.645 245.308,336.000 244.816,336.000 244.505 C 336.000 244.324,336.360 243.917,336.800 243.600 C 337.240 243.283,337.600 242.801,337.600 242.530 C 337.600 242.258,338.014 241.623,338.519 241.117 C 339.025 240.612,339.572 239.928,339.735 239.599 C 340.592 237.867,341.968 235.884,343.700 233.885 C 344.085 233.441,344.400 232.850,344.400 232.572 C 344.400 232.294,344.535 232.007,344.700 231.933 C 345.246 231.690,347.200 228.863,347.200 228.315 C 347.200 228.019,347.560 227.517,348.000 227.200 C 348.440 226.883,348.800 226.393,348.800 226.112 C 348.800 225.830,348.960 225.600,349.157 225.600 C 349.353 225.600,349.626 225.150,349.764 224.600 C 349.902 224.050,350.192 223.600,350.408 223.600 C 350.623 223.600,350.800 223.306,350.800 222.947 C 350.800 222.588,351.117 222.003,351.506 221.647 C 351.894 221.291,352.564 220.325,352.996 219.500 C 353.428 218.675,353.921 218.000,354.091 218.000 C 354.261 218.000,354.400 217.640,354.400 217.200 C 354.400 216.760,354.535 216.399,354.700 216.397 C 355.102 216.394,356.400 214.081,356.400 213.368 C 356.400 213.055,356.580 212.800,356.800 212.800 C 357.020 212.800,357.200 212.612,357.200 212.383 C 357.200 212.154,357.545 211.596,357.967 211.144 C 358.388 210.691,358.850 209.854,358.993 209.284 C 359.136 208.714,359.566 207.967,359.947 207.624 C 360.673 206.971,362.000 204.396,362.000 203.640 C 362.000 203.398,362.180 203.200,362.400 203.200 C 362.620 203.200,362.800 202.840,362.800 202.400 C 362.800 201.960,362.980 201.600,363.200 201.600 C 363.420 201.600,363.600 201.240,363.600 200.800 C 363.600 200.360,363.759 200.000,363.952 200.000 C 364.146 200.000,364.819 198.965,365.448 197.700 C 366.077 196.435,366.693 195.310,366.817 195.200 C 367.245 194.819,368.400 192.076,368.400 191.440 C 368.400 191.088,368.580 190.800,368.800 190.800 C 369.020 190.800,369.200 190.530,369.200 190.200 C 369.200 189.870,369.380 189.600,369.600 189.600 C 369.820 189.600,370.000 189.240,370.000 188.800 C 370.000 188.360,370.166 188.000,370.368 188.000 C 370.877 188.000,371.316 185.795,371.003 184.809 C 370.862 184.364,370.486 184.000,370.168 184.000 C 369.849 184.000,369.232 183.820,368.795 183.600 C 368.358 183.380,367.662 183.032,367.249 182.827 C 366.836 182.622,365.846 182.332,365.049 182.183 C 364.252 182.033,363.600 181.751,363.600 181.555 C 363.600 181.360,363.150 181.200,362.600 181.200 C 362.050 181.200,361.600 181.020,361.600 180.800 C 361.600 180.580,361.261 180.400,360.846 180.400 C 360.431 180.400,359.576 180.131,358.946 179.802 C 358.316 179.474,357.395 179.204,356.900 179.202 C 356.405 179.201,356.000 179.020,356.000 178.800 C 356.000 178.580,355.728 178.400,355.395 178.400 C 355.062 178.400,354.432 178.220,353.995 178.000 C 353.558 177.780,352.842 177.420,352.405 177.200 C 351.968 176.980,351.248 176.800,350.805 176.800 C 350.362 176.800,350.000 176.601,350.000 176.357 C 350.000 176.114,349.730 176.018,349.400 176.145 C 349.070 176.271,348.800 176.201,348.800 175.987 C 348.800 175.774,348.361 175.600,347.824 175.600 C 347.287 175.600,346.736 175.420,346.600 175.200 C 346.100 174.392,344.000 174.734,344.000 175.624 C 344.000 176.077,343.820 176.336,343.600 176.200 C 343.380 176.064,343.200 176.199,343.200 176.501 C 343.200 176.802,342.885 177.407,342.500 177.845 C 341.474 179.012,340.745 180.388,340.965 180.743 C 341.071 180.914,340.807 181.307,340.379 181.615 C 339.950 181.924,339.600 182.407,339.600 182.688 C 339.600 182.970,339.420 183.200,339.200 183.200 C 338.980 183.200,338.800 183.547,338.800 183.971 C 338.800 184.396,338.530 185.013,338.200 185.343 C 337.870 185.673,337.600 186.136,337.600 186.371 C 337.600 186.607,337.420 186.800,337.200 186.800 C 336.980 186.800,336.800 187.042,336.800 187.338 C 336.800 187.634,336.456 188.187,336.036 188.567 C 335.616 188.948,335.162 189.696,335.028 190.229 C 334.894 190.763,334.608 191.200,334.392 191.200 C 334.177 191.200,334.000 191.404,334.000 191.653 C 334.000 191.902,333.666 192.397,333.257 192.753 C 332.849 193.109,332.387 193.805,332.230 194.300 C 332.074 194.795,331.778 195.200,331.573 195.200 C 331.368 195.200,331.200 195.520,331.200 195.912 C 331.200 196.303,330.840 196.883,330.400 197.200 C 329.960 197.517,329.600 198.007,329.600 198.288 C 329.600 198.570,329.409 198.800,329.176 198.800 C 328.943 198.800,328.864 198.980,329.000 199.200 C 329.136 199.420,329.057 199.600,328.824 199.600 C 328.591 199.600,328.400 199.830,328.400 200.112 C 328.400 200.393,328.040 200.883,327.600 201.200 C 327.160 201.517,326.800 201.964,326.800 202.192 C 326.800 202.421,326.350 203.093,325.800 203.687 C 325.250 204.280,324.800 204.972,324.800 205.225 C 324.800 205.478,324.350 206.039,323.800 206.471 C 323.250 206.904,322.800 207.527,322.800 207.855 C 322.800 208.183,322.260 208.906,321.600 209.461 C 320.940 210.017,320.400 210.725,320.400 211.036 C 320.400 211.346,320.232 211.600,320.027 211.600 C 319.822 211.600,319.550 211.927,319.423 212.327 C 319.296 212.726,318.384 213.921,317.396 214.982 C 316.408 216.043,315.600 217.057,315.600 217.236 C 315.600 217.415,314.970 218.173,314.200 218.921 C 313.430 219.669,312.800 220.406,312.800 220.559 C 312.800 220.711,312.395 221.276,311.900 221.814 C 309.565 224.350,309.200 224.794,309.200 225.097 C 309.200 225.277,308.850 225.676,308.421 225.985 C 307.993 226.293,307.734 226.693,307.845 226.873 C 307.956 227.053,307.884 227.200,307.685 227.200 C 307.157 227.200,305.927 228.377,304.579 230.170 C 303.931 231.034,302.005 233.186,300.300 234.952 C 298.595 236.718,297.200 238.384,297.200 238.655 C 297.200 238.925,296.837 239.261,296.394 239.402 C 295.951 239.543,295.664 239.780,295.756 239.929 C 295.848 240.078,295.395 240.650,294.749 241.200 C 294.104 241.750,292.101 243.685,290.300 245.500 C 288.499 247.315,286.897 248.800,286.741 248.800 C 286.585 248.800,286.400 237.289,286.329 223.220 C 286.229 203.429,286.087 197.526,285.700 197.140 C 285.425 196.865,285.200 196.046,285.200 195.320 C 285.200 194.594,285.020 194.000,284.800 194.000 C 284.580 194.000,284.400 193.370,284.400 192.600 C 284.400 191.830,284.231 191.200,284.025 191.200 C 283.818 191.200,283.528 190.390,283.379 189.400 C 283.231 188.410,282.950 187.600,282.755 187.600 C 282.560 187.600,282.400 187.240,282.400 186.800 C 282.400 186.360,282.220 186.000,282.000 186.000 C 281.780 186.000,281.600 185.790,281.600 185.534 C 281.600 184.788,280.277 182.000,279.923 182.000 C 279.745 182.000,279.600 181.640,279.600 181.200 C 279.600 180.760,279.420 180.400,279.200 180.400 C 278.980 180.400,278.800 180.170,278.800 179.888 C 278.800 179.607,278.440 179.117,278.000 178.800 C 277.560 178.483,277.200 177.916,277.200 177.541 C 277.200 177.165,276.750 176.504,276.200 176.071 C 275.650 175.639,275.200 175.070,275.200 174.808 C 275.200 174.220,268.138 167.200,267.547 167.200 C 267.313 167.200,266.617 166.660,266.000 166.000 C 265.383 165.340,264.681 164.800,264.440 164.800 C 264.198 164.800,264.000 164.609,264.000 164.376 C 264.000 164.143,263.820 164.064,263.600 164.200 C 263.380 164.336,263.200 164.257,263.200 164.024 C 263.200 163.791,262.930 163.600,262.600 163.600 C 262.270 163.600,262.000 163.420,262.000 163.200 C 262.000 162.980,261.810 162.800,261.579 162.800 C 261.347 162.800,260.495 162.350,259.686 161.800 C 258.877 161.250,257.896 160.800,257.507 160.800 C 257.118 160.800,256.800 160.620,256.800 160.400 C 256.800 160.180,256.451 160.000,256.024 160.000 C 255.597 160.000,255.136 159.820,255.000 159.600 C 254.864 159.380,254.403 159.200,253.976 159.200 C 253.549 159.200,253.200 159.033,253.200 158.829 C 253.200 158.625,252.210 158.334,251.000 158.183 C 249.790 158.032,248.800 157.749,248.800 157.554 C 248.800 157.359,248.271 157.200,247.624 157.200 C 246.977 157.200,246.336 157.020,246.200 156.800 C 246.064 156.580,244.883 156.400,243.576 156.400 C 242.259 156.400,241.200 156.222,241.200 156.000 C 241.200 155.362,170.325 155.487,169.768 156.126 " stroke="none" fill="#4c94b4" fill-rule="evenodd"></path><path id="path1" d="M371.301 86.200 C 371.305 87.080,371.387 87.393,371.483 86.895 C 371.579 86.398,371.575 85.678,371.475 85.295 C 371.375 84.913,371.296 85.320,371.301 86.200 " stroke="none" fill="#5094b4" fill-rule="evenodd"></path><path id="path2" d="M371.301 86.200 C 371.305 87.080,371.387 87.393,371.483 86.895 C 371.579 86.398,371.575 85.678,371.475 85.295 C 371.375 84.913,371.296 85.320,371.301 86.200 " stroke="none" fill="#5094b4" fill-rule="evenodd"></path><path id="path3" d="M371.301 86.200 C 371.305 87.080,371.387 87.393,371.483 86.895 C 371.579 86.398,371.575 85.678,371.475 85.295 C 371.375 84.913,371.296 85.320,371.301 86.200 " stroke="none" fill="#5094b4" fill-rule="evenodd"></path><path id="path4" d="M371.301 86.200 C 371.305 87.080,371.387 87.393,371.483 86.895 C 371.579 86.398,371.575 85.678,371.475 85.295 C 371.375 84.913,371.296 85.320,371.301 86.200 " stroke="none" fill="#5094b4" fill-rule="evenodd"></path></g></svg>